<svg viewBox="0 0 200 160" xmlns="http://www.w3.org/2000/svg" role="img" aria-label="Ikona meleksa">
  <ellipse cx="100" cy="138" rx="80" ry="9" fill="#2b6b4f" opacity="0.13"/>
  <rect x="48" y="36" width="14" height="56" rx="6" fill="#cfd6d8"/>
  <rect x="138" y="36" width="14" height="56" rx="6" fill="#cfd6d8"/>
  <rect x="36" y="22" width="128" height="20" rx="10" fill="#ffffff"/>
  <rect x="36" y="26" width="128" height="7" rx="3" fill="#2e8b57"/>
  <path d="M30 96 Q30 76 50 76 L120 76 Q132 64 148 64 Q166 64 176 82 L182 92 Q184 104 174 104 L40 104 Q30 104 30 96 Z" fill="#ffffff"/>
  <rect x="30" y="88" width="148" height="8" rx="4" fill="#2e8b57"/>
  <rect x="60" y="64" width="40" height="14" rx="5" fill="#2e8b57"/>
  <circle cx="64" cy="112" r="18" fill="#2b2b34"/>
  <circle cx="64" cy="112" r="7" fill="#cfd6d8"/>
  <circle cx="150" cy="112" r="18" fill="#2b2b34"/>
  <circle cx="150" cy="112" r="7" fill="#cfd6d8"/>
</svg>
